<?xml version="1.0" encoding="UTF-8"?><svg id="Layer_1" xmlns="http://www.w3.org/2000/svg" viewBox="0 0 288 288"><defs><style>.cls-1{fill:#aaf0ff;}.cls-1,.cls-2{stroke-width:0px;}.cls-2{fill:#0159d2;}</style></defs><path class="cls-2" d="m240.55,73.99c7.14-7.14,7.14-18.72,0-25.87-7.14-7.14-18.73-7.14-25.87,0L46.87,215.93c-7.14,7.14-7.14,18.72,0,25.87,7.14,7.14,18.73,7.14,25.87,0L240.55,73.99Z"/><path class="cls-2" d="m97.67,124.78c7.14,7.14,18.73,7.14,25.87,0,7.14-7.14,7.14-18.72,0-25.87l-50.33-50.33c-7.14-7.14-18.73-7.14-25.87,0-7.14,7.14-7.14,18.73,0,25.87l50.33,50.33Z"/><path class="cls-1" d="m127.74,78.56c0,10.32,8.19,18.69,18.3,18.69s18.3-8.37,18.3-18.69V30.55c0-10.32-8.19-18.69-18.3-18.69s-18.3,8.37-18.3,18.69v48.01Z"/><path class="cls-1" d="m76.53,162.3c10.32,0,18.69-7.28,18.69-16.26s-8.37-16.26-18.69-16.26H28.52c-10.32,0-18.69,7.28-18.69,16.26s8.37,16.26,18.69,16.26h48.01Z"/><path class="cls-1" d="m259.48,162.3c10.32,0,18.69-8.19,18.69-18.3s-8.37-18.3-18.69-18.3h-48.01c-10.32,0-18.69,8.19-18.69,18.3s8.37,18.3,18.69,18.3h48.01Z"/><path class="cls-1" d="m123.67,258.34c0,9.83,8.19,17.8,18.3,17.8s18.3-7.97,18.3-17.8v-45.72c0-9.83-8.19-17.8-18.3-17.8s-18.3,7.97-18.3,17.8v45.72Z"/><path class="cls-2" d="m214.25,241.35c7.14,7.14,18.72,7.14,25.87,0,7.14-7.14,7.14-18.72,0-25.87l-50.33-50.33c-7.14-7.14-18.72-7.14-25.87,0-7.14,7.14-7.14,18.73,0,25.87l50.33,50.33Z"/></svg>