<?xml version="1.0" encoding="UTF-8"?><svg id="Layer_1" xmlns="http://www.w3.org/2000/svg" viewBox="0 0 576 193.56"><defs><style>.cls-1,.cls-2,.cls-3{stroke-width:0px;}.cls-2{fill:#aaf0ff;}.cls-3{fill:#0159d2;}</style></defs><path class="cls-1" d="m37.99,74.34c4.7-2.45,10.02-3.67,15.94-3.67,6.77,0,12.96,1.67,18.56,5.01,5.6,3.34,10,8.02,13.2,14.04,3.2,6.03,4.8,12.94,4.8,20.74s-1.6,14.8-4.8,20.95c-3.2,6.17-7.6,10.96-13.2,14.39-5.6,3.44-11.78,5.15-18.56,5.15-5.92,0-11.19-1.2-15.8-3.59-4.61-2.39-8.37-5.39-11.28-8.97v48.26H10.75v-114.72h16.09v11.43c2.73-3.58,6.44-6.59,11.15-9.03Zm32.81,22.23c-2.21-3.9-5.13-6.87-8.75-8.89-3.62-2.02-7.51-3.03-11.65-3.03s-7.87,1.04-11.5,3.11c-3.62,2.07-6.53,5.08-8.75,9.03s-3.32,8.6-3.32,13.96,1.11,10.05,3.32,14.04c2.21,4,5.13,7.03,8.75,9.1,3.62,2.07,7.46,3.11,11.5,3.11s8.02-1.05,11.65-3.18c3.62-2.12,6.53-5.19,8.75-9.24s3.32-8.75,3.32-14.11-1.11-10-3.32-13.9h0Z"/><path class="cls-1" d="m116.87,145.96c-5.92-3.34-10.58-8.04-13.96-14.11-3.38-6.06-5.08-13.09-5.08-21.1s1.74-14.91,5.22-21.03c3.47-6.12,8.23-10.81,14.25-14.11,6.03-3.29,12.74-4.93,20.17-4.93s14.16,1.65,20.19,4.93c6.03,3.29,10.78,8,14.25,14.11,3.47,6.12,5.22,13.12,5.22,21.03s-1.78,14.91-5.36,21.03c-3.58,6.12-8.45,10.84-14.6,14.19-6.17,3.34-12.96,5.01-20.39,5.01s-13.96-1.67-19.9-5.01h0Zm31.53-11.92c3.62-1.98,6.56-4.95,8.82-8.89,2.25-3.96,3.38-8.75,3.38-14.39s-1.08-10.41-3.24-14.33c-2.16-3.9-5.04-6.85-8.6-8.82-3.58-1.98-7.43-2.97-11.57-2.97s-7.98.99-11.5,2.97c-3.53,1.98-6.32,4.92-8.39,8.82-2.07,3.9-3.11,8.68-3.11,14.33,0,8.37,2.13,14.84,6.42,19.4,4.28,4.57,9.67,6.85,16.16,6.85,4.14,0,8.02-.99,11.63-2.97Z"/><path class="cls-1" d="m240.57,74.48c4.84,2.54,8.63,6.3,11.36,11.28,2.73,4.98,4.09,11.01,4.09,18.06v45.86h-15.94v-43.47c0-6.96-1.74-12.3-5.22-16.02-3.49-3.71-8.24-5.57-14.25-5.57s-10.79,1.86-14.33,5.57c-3.53,3.72-5.3,9.06-5.3,16.02v43.47h-16.09v-77.75h16.09v8.89c2.63-3.2,6-5.69,10.09-7.48,4.09-1.78,8.45-2.68,13.05-2.68,6.12,0,11.6,1.28,16.44,3.81h.01Z"/><path class="cls-1" d="m268.51,89.72c3.24-6.03,7.67-10.7,13.26-14.04s11.83-5.01,18.7-5.01c5.08,0,10.09,1.11,15.03,3.32,4.93,2.21,8.86,5.15,11.78,8.82v-37.53h16.23v104.43h-16.23v-11.71c-2.63,3.76-6.27,6.87-10.93,9.32-4.66,2.45-10,3.67-16.02,3.67-6.77,0-12.96-1.72-18.56-5.15-5.6-3.44-10.02-8.23-13.26-14.39-3.24-6.16-4.87-13.14-4.87-20.95s1.63-14.72,4.87-20.74h0Zm55.45,7.05c-2.21-3.96-5.1-6.96-8.68-9.03-3.58-2.07-7.43-3.11-11.57-3.11s-7.99,1.02-11.57,3.03c-3.58,2.03-6.47,4.98-8.68,8.89s-3.32,8.54-3.32,13.9,1.11,10.07,3.32,14.11c2.21,4.05,5.13,7.13,8.75,9.24,3.62,2.12,7.46,3.18,11.5,3.18s7.99-1.03,11.57-3.11c3.58-2.07,6.47-5.1,8.68-9.1s3.32-8.68,3.32-14.04-1.11-10.02-3.32-13.96h0Z"/><path class="cls-1" d="m427.66,100.63l-54.06,24.61c3.01,5.45,7.16,9.04,12.49,10.75,1.91.61,3.84.96,5.77,1.03,4.76.18,8.41-1.33,10.45-2.21,5.49-2.36,8.77-5.84,10.35-7.54,2.5-2.71,4.13-5.35,5.14-7.29,3.36,2.5,6.72,5,10.06,7.5-.4.99-1.02,2.37-1.91,3.93-5.65,9.93-14.88,14.29-18.04,15.73-6.77,3.08-13.51,4.32-20.25,3.71-6.74-.6-12.88-2.97-18.43-7.11-5.56-4.14-9.98-9.85-13.3-17.13-3.32-7.28-4.75-14.35-4.31-21.21.44-6.87,2.65-13.01,6.64-18.45,3.98-5.43,9.45-9.72,16.39-12.88,6.68-3.05,13.29-4.29,19.83-3.76s12.48,2.77,17.79,6.72c5.31,3.94,9.53,9.33,12.64,16.19,1.21,2.65,2.13,5.13,2.76,7.43h0Zm-20.15-5.09c-2.54-5.35-6.44-8.8-11.69-10.35-5.24-1.54-10.66-1.04-16.22,1.5-5.05,2.3-8.64,5.87-10.78,10.72-2.13,4.84-2.29,10.16-.48,15.96l39.17-17.83h-.01Z"/><path class="cls-1" d="m463.95,73.99c3.9-2.21,8.54-3.32,13.9-3.32v16.65h-4.09c-6.3,0-11.08,1.6-14.33,4.8-3.24,3.2-4.87,8.75-4.87,16.65v40.92h-16.09v-77.75h16.09v11.28c2.36-3.96,5.48-7.03,9.38-9.24h0Z"/><path class="cls-3" d="m557.03,27.11c2.29-2.29,2.29-5.99,0-8.28-2.29-2.29-5.99-2.29-8.28,0l-53.72,53.72c-2.29,2.29-2.29,5.99,0,8.28,2.29,2.29,5.99,2.29,8.28,0l53.72-53.72Z"/><path class="cls-3" d="m511.29,43.37c2.29,2.29,5.99,2.29,8.28,0,2.29-2.29,2.29-5.99,0-8.28l-16.11-16.11c-2.29-2.29-5.99-2.29-8.28,0-2.29,2.29-2.29,5.99,0,8.28l16.11,16.11Z"/><path class="cls-2" d="m520.91,28.57c0,3.3,2.62,5.98,5.86,5.98s5.86-2.68,5.86-5.98v-15.37c0-3.3-2.62-5.98-5.86-5.98s-5.86,2.68-5.86,5.98v15.37Z"/><path class="cls-2" d="m504.52,55.38c3.3,0,5.98-2.33,5.98-5.21s-2.68-5.21-5.98-5.21h-15.37c-3.3,0-5.98,2.33-5.98,5.21s2.68,5.21,5.98,5.21h15.37Z"/><path class="cls-2" d="m563.08,55.38c3.3,0,5.98-2.62,5.98-5.86s-2.68-5.86-5.98-5.86h-15.37c-3.3,0-5.98,2.62-5.98,5.86s2.68,5.86,5.98,5.86h15.37Z"/><path class="cls-2" d="m519.61,86.12c0,3.15,2.62,5.7,5.86,5.7s5.86-2.55,5.86-5.7v-14.64c0-3.15-2.62-5.7-5.86-5.7s-5.86,2.55-5.86,5.7v14.64Z"/><path class="cls-3" d="m548.61,80.68c2.29,2.29,5.99,2.29,8.28,0,2.29-2.29,2.29-5.99,0-8.28l-16.11-16.11c-2.29-2.29-5.99-2.29-8.28,0-2.29,2.29-2.29,5.99,0,8.28l16.11,16.11Z"/></svg>